<!-- Generated by IcoMoon.io -->
<svg version="1.1" xmlns="http://www.w3.org/2000/svg" width="1024" height="1024" viewBox="0 0 1024 1024">
<title></title>
<g id="icomoon-ignore">
</g>
<path stroke-linejoin="round" stroke-linecap="round" stroke-miterlimit="4" stroke-width="64" stroke="#000" fill="#000" d="M432.931 949.336c26.836 0 48.591-21.755 48.591-48.591s-21.755-48.591-48.591-48.591c-26.836 0-48.593 21.755-48.593 48.591s21.757 48.591 48.593 48.591z"></path>
<path stroke-linejoin="round" stroke-linecap="round" stroke-miterlimit="4" stroke-width="64" stroke="#000" fill="#000" d="M773.085 949.336c26.836 0 48.591-21.755 48.591-48.591s-21.755-48.591-48.591-48.591c-26.84 0-48.595 21.755-48.595 48.591s21.755 48.591 48.595 48.591z"></path>
<path fill="none" stroke-linejoin="round" stroke-linecap="round" stroke-miterlimit="4" stroke-width="85.3333" stroke="#000" d="M44.188 74.665h150.361l112.769 639.029h601.435"></path>
<path fill="none" stroke-linejoin="round" stroke-linecap="round" stroke-miterlimit="4" stroke-width="85.3333" stroke="#000" d="M287.153 559.059l606.191 4.253c4.346 0.004 8.558-1.503 11.924-4.253 3.362-2.757 5.664-6.59 6.521-10.852l67.658-338.306c0.545-2.728 0.48-5.545-0.193-8.241-0.673-2.701-1.938-5.217-3.7-7.365s-3.983-3.884-6.5-5.071c-2.517-1.188-5.265-1.805-8.048-1.803h-735.231"></path>
</svg>
